<svg xmlns="http://www.w3.org/2000/svg" width="70.59" height="15.53" viewBox="0 0 100 22">
    <path d="M6 0l4.5 14L15 0h6l-8 21H8L0 0zM52.5 0l10 13V0H67v21h-4.001L52.5 8v13H48V0zM96 21h4v-4h-4zM40 11c0-3.646-2.667-6.5-6.5-6.5S27 7.353 27 11c-.023 3.646 2.667 6.5 6.5 6.5 3.834 0 6.5-2.854 6.5-6.5zM33.5 0C40.178 0 45 4.953 45 11s-4.823 11-11.5 11S22 17.047 22 11 26.823 0 33.5 0zM85.5 17L82 13.986 84.5 11l3.5 2.986c.366-.84 1-1.935 1-2.986 0-3.602-2.718-6.5-6.5-6.5S76 7.398 76 11s2.718 6.5 6.5 6.5c1.037 0 2.176-.11 3-.5zm3.5 3c-1.8 1.14-4.12 2-6.5 2C75.911 22 71 16.973 71 11S75.911 0 82.5 0 94 5.027 94 11c0 2.221-.81 4.26-2 6l2 2-2.99 3L89 20z" fill="#fff"/>
</svg>
