<svg xmlns="http://www.w3.org/2000/svg" width="28.713" height="28.712" viewBox="0 0 18.713 18.712">
  <path id="Path_11544" data-name="Path 11544" d="M454.64,306.858A9.356,9.356,0,1,0,464,316.214,9.367,9.367,0,0,0,454.64,306.858Zm0,1.481a7.875,7.875,0,0,1,6.344,12.541,8.774,8.774,0,0,0-5.679-2.988,3.851,3.851,0,1,0-1.332,0,8.562,8.562,0,0,0-5.679,2.988,7.875,7.875,0,0,1,6.345-12.541Zm-2.37,5.751a2.37,2.37,0,1,1,2.37,2.395A2.392,2.392,0,0,1,452.27,314.09Zm-2.962,7.9a6.7,6.7,0,0,1,10.664,0,7.824,7.824,0,0,1-10.664,0Z" transform="translate(-445.283 -306.858)" fill="#fff"/>
</svg>
